<?xml version="1.0" encoding="UTF-8" standalone="no"?>
<!-- Created with Inkscape (http://www.inkscape.org/) -->

<svg
   xmlns:dc="http://purl.org/dc/elements/1.1/"
   xmlns:cc="http://creativecommons.org/ns#"
   xmlns:rdf="http://www.w3.org/1999/02/22-rdf-syntax-ns#"
   xmlns:svg="http://www.w3.org/2000/svg"
   xmlns="http://www.w3.org/2000/svg"
   xmlns:sodipodi="http://sodipodi.sourceforge.net/DTD/sodipodi-0.dtd"
   xmlns:inkscape="http://www.inkscape.org/namespaces/inkscape"
   width="694.97565"
   height="696.28668"
   id="svg2"
   version="1.1"
   inkscape:version="0.48.1 "
   sodipodi:docname="abstract1.svg">
  <title
     id="title3034">Fruit Layer</title>
  <defs
     id="defs4">
    <inkscape:path-effect
       effect="spiro"
       id="path-effect3086"
       is_visible="true" />
    <inkscape:path-effect
       effect="spiro"
       id="path-effect2991"
       is_visible="true" />
    <inkscape:path-effect
       effect="spiro"
       id="path-effect2987"
       is_visible="true" />
  </defs>
  <sodipodi:namedview
     id="base"
     pagecolor="#ffffff"
     bordercolor="#666666"
     borderopacity="1.0"
     inkscape:pageopacity="0.0"
     inkscape:pageshadow="2"
     inkscape:zoom="0.7584788"
     inkscape:cx="-47.119495"
     inkscape:cy="329.6098"
     inkscape:document-units="px"
     inkscape:current-layer="layer1"
     showgrid="false"
     fit-margin-top="0"
     fit-margin-left="0"
     fit-margin-right="0"
     fit-margin-bottom="0"
     inkscape:window-width="1920"
     inkscape:window-height="1058"
     inkscape:window-x="1912"
     inkscape:window-y="-8"
     inkscape:window-maximized="1" />
  <metadata
     id="metadata7">
    <rdf:RDF>
      <cc:Work
         rdf:about="">
        <dc:format>image/svg+xml</dc:format>
        <dc:type
           rdf:resource="http://purl.org/dc/dcmitype/StillImage" />
        <dc:title>Fruit Layer</dc:title>
        <dc:date>2015</dc:date>
        <dc:creator>
          <cc:Agent>
            <dc:title>arking</dc:title>
          </cc:Agent>
        </dc:creator>
        <dc:subject>
          <rdf:Bag>
            <rdf:li>fruit layer green</rdf:li>
          </rdf:Bag>
        </dc:subject>
      </cc:Work>
    </rdf:RDF>
  </metadata>
  <g
     inkscape:label="Ebene 1"
     inkscape:groupmode="layer"
     id="layer1"
     transform="translate(167.72854,497.16838)">
    <g
       id="g3284"
       transform="matrix(0.6127569,0,0,0.6127569,140.69996,-391.32165)"
       style="stroke:none">
      <path
         sodipodi:nodetypes="cccccc"
         inkscape:connector-curvature="0"
         id="path2989"
         d="M 383.52754,-48.325772 C 664.97382,151.59061 705.19503,565.50043 484.28571,716.6479 -19.709488,1165.3398 -308.44174,930.33275 -477.14287,575.21932 -559.28296,156.28402 -479.0604,-369.01491 279.99999,-97.637816 -833.62958,-191.7894 -386.28345,830.53336 -182.85715,843.79075 265.89437,924.06933 802.07498,724.32944 383.52754,-48.325772 z"
         style="fill:#002b00;stroke:none" />
      <path
         sodipodi:nodetypes="cccccc"
         inkscape:connector-curvature="0"
         id="path2989-6"
         d="M 364.21285,769.97113 C 137.15743,978.47736 -235.42878,957.26086 -326.23454,736.16617 -677.81979,298.39009 -350.07358,-86.125679 -14.905017,-97.054563 351.10125,-230.81228 803.89388,118.58508 425.0281,733.11513 714.87743,-221.83309 -257.66109,-59.596947 -307.16599,115.57791 -460.93802,492.49288 -388.56137,991.42044 364.21285,769.97113 z"
         style="fill:#008000;stroke:none" />
      <path
         sodipodi:nodetypes="cccccc"
         inkscape:connector-curvature="0"
         id="path2989-6-8"
         d="M -238.65244,46.636743 C -7.113846,-91.597127 340.81089,-18.837788 456.43368,172.38948 645.04948,649.97767 442.56929,828.28032 31.965959,833.79319 -305.30165,883.3059 -625.57881,417.41657 -191.844,-41.603923 -226.48159,788.7081 246.55029,844.85737 320.08811,703.61478 629.4881,347.67003 460.20017,-39.739145 -238.65244,46.636743 z"
         style="fill:#37c837;stroke:none" />
      <path
         sodipodi:nodetypes="cccccc"
         inkscape:connector-curvature="0"
         id="path2989-6-8-8"
         d="M 223.64536,752.9806 C 8.2041881,794.18479 -274.60455,621.7318 -309.74762,443.39417 -373.76253,-62.110154 -126.1171,-69.926137 198.77065,56.033319 539.37422,156.45636 671.30305,592.80764 176.84298,800.28494 709.64546,330.85984 37.84399,-12.151527 -57.675001,75.330968 -393.2243,261.25874 -334.52849,624.47524 223.64536,752.9806 z"
         style="fill:#87de87;stroke:none;stroke-width:0.63537568000000000px;stroke-linecap:butt;stroke-linejoin:miter;stroke-opacity:1" />
      <path
         sodipodi:nodetypes="cccccc"
         inkscape:connector-curvature="0"
         id="path2989-6-8-8-8"
         d="M 113.40848,80.950235 C 287.22505,137.51904 462.17871,345.85144 382.33941,525.9318 219.58785,914.78663 24.52118,815.31696 -156.42414,590.90915 -359.1775,378.32346 -319.37581,5.3034083 120.77521,60.637858 -199.44799,279.50199 -7.4454043,730.91566 35.405426,682.92199 250.05545,352.7217 458.87908,397.97332 113.40848,80.950235 z"
         style="fill:#afe9af;stroke:none;stroke-width:0.52564204000000003px;stroke-linecap:butt;stroke-linejoin:miter;stroke-opacity:1" />
      <path
         sodipodi:nodetypes="cccccc"
         inkscape:connector-curvature="0"
         id="path2989-6-8-8-8-7"
         d="M 33.078927,702.58367 C -53.167252,646.66464 -93.487207,442.90428 -37.806689,184.44332 131.84589,-4.8864571 223.29515,90.374345 281.981,254.01822 355.42978,415.2417 181.81141,679.87563 -26.565185,704.12667 215.78215,647.54262 260.04522,154.8498 190.90059,163.646 49.033059,327.05093 155.25296,555.68762 33.078927,702.58367 z"
         style="fill:#ff5555;stroke:none;stroke-width:0.31700101000000003px;stroke-linecap:butt;stroke-linejoin:miter;stroke-opacity:1" />
      <path
         sodipodi:nodetypes="cccc"
         inkscape:connector-curvature="0"
         id="path3084"
         d="M 191.42857,143.79075 C 122.87987,225.473 88.071958,412.10779 57.142857,615.21933 61.753782,640.49912 -168.34684,877.01891 162.85714,586.6479 c 42.51229,-159.5682 100.48412,-401.81923 40,-480.00001"
         style="fill:#536c5d;stroke:none;stroke-width:1px;stroke-linecap:butt;stroke-linejoin:miter;stroke-opacity:1" />
      <rect
         rx="2.7902913"
         ry="6.377809"
         y="470.54855"
         x="-12.304475"
         height="12.755618"
         width="12.755618"
         id="rect3089"
         style="fill:#ffff00;fill-opacity:1;stroke:none" />
      <rect
         rx="2.7902913"
         ry="6.377809"
         y="506.56293"
         x="80.495308"
         height="12.755618"
         width="12.755618"
         id="rect3089-9"
         style="fill:#ffff00;fill-opacity:1;stroke:none" />
      <rect
         rx="2.7902913"
         ry="6.377809"
         y="318.67453"
         x="-12.438725"
         height="12.755618"
         width="12.755618"
         id="rect3089-0"
         style="fill:#ffff00;fill-opacity:1;stroke:none" />
      <rect
         rx="2.7902913"
         ry="6.377809"
         y="276.24814"
         x="66.353172"
         height="12.755618"
         width="12.755618"
         id="rect3089-5"
         style="fill:#ffff00;fill-opacity:1;stroke:none" />
      <rect
         rx="2.7902913"
         ry="6.377809"
         y="177.25319"
         x="68.373482"
         height="12.755618"
         width="12.755618"
         id="rect3089-7"
         style="fill:#ffff00;fill-opacity:1;stroke:none" />
      <rect
         rx="2.7902913"
         ry="6.377809"
         y="359.08066"
         x="282.52582"
         height="12.755618"
         width="12.755618"
         id="rect3089-2"
         style="fill:#ffff00;fill-opacity:1;stroke:none" />
      <rect
         rx="2.7902913"
         ry="6.377809"
         y="369.18216"
         x="264.34308"
         height="12.755618"
         width="12.755618"
         id="rect3089-20"
         style="fill:#ffff00;fill-opacity:1;stroke:none" />
      <rect
         rx="2.7902913"
         ry="6.377809"
         y="454.03497"
         x="217.87605"
         height="12.755618"
         width="12.755618"
         id="rect3089-3"
         style="fill:#ffff00;fill-opacity:1;stroke:none" />
      <rect
         rx="2.7902913"
         ry="6.377809"
         y="377.2634"
         x="25.947073"
         height="12.755618"
         width="12.755618"
         id="rect3089-4"
         style="fill:#ffff00;fill-opacity:1;stroke:none" />
      <rect
         rx="2.7902913"
         ry="6.377809"
         y="227.76082"
         x="-0.31689379"
         height="12.755618"
         width="12.755618"
         id="rect3089-56"
         style="fill:#ffff00;fill-opacity:1;stroke:none" />
      <rect
         rx="2.7902913"
         ry="6.377809"
         y="108.56281"
         x="122.92171"
         height="12.755618"
         width="12.755618"
         id="rect3089-37"
         style="fill:#ffff00;fill-opacity:1;stroke:none" />
      <rect
         rx="2.7902913"
         ry="6.377809"
         y="579.29388"
         x="13.825242"
         height="12.755618"
         width="12.755618"
         id="rect3089-39"
         style="fill:#ffff00;fill-opacity:1;stroke:none" />
      <rect
         rx="2.7902913"
         ry="6.377809"
         y="508.58322"
         x="225.95728"
         height="12.755618"
         width="12.755618"
         id="rect3089-6"
         style="fill:#ffff00;fill-opacity:1;stroke:none" />
      <rect
         rx="2.7902913"
         ry="6.377809"
         y="249.98416"
         x="240.09941"
         height="12.755618"
         width="12.755618"
         id="rect3089-34"
         style="fill:#ffff00;fill-opacity:1;stroke:none" />
      <rect
         rx="2.7902913"
         ry="6.377809"
         y="157.05014"
         x="9.7846317"
         height="12.755618"
         width="12.755618"
         id="rect3089-46"
         style="fill:#ffff00;fill-opacity:1;stroke:none" />
      <rect
         rx="2.7902913"
         ry="6.377809"
         y="227.76082"
         x="159.2872"
         height="12.755618"
         width="12.755618"
         id="rect3089-8"
         style="fill:#ffff00;fill-opacity:1;stroke:none" />
      <rect
         rx="2.7902913"
         ry="6.377809"
         y="383.32431"
         x="167.36842"
         height="12.755618"
         width="12.755618"
         id="rect3089-54"
         style="fill:#ffff00;fill-opacity:1;stroke:none" />
      <rect
         rx="2.7902913"
         ry="6.377809"
         y="409.58826"
         x="90.596832"
         height="12.755618"
         width="12.755618"
         id="rect3089-467"
         style="fill:#ffff00;fill-opacity:1;stroke:none" />
      <rect
         rx="2.7902913"
         ry="6.377809"
         y="397.46643"
         x="-48.804214"
         height="12.755618"
         width="12.755618"
         id="rect3089-25"
         style="fill:#ffff00;fill-opacity:1;stroke:none" />
      <rect
         rx="2.7902913"
         ry="6.377809"
         y="593.43604"
         x="-18.49964"
         height="12.755618"
         width="12.755618"
         id="rect3089-567"
         style="fill:#ffff00;fill-opacity:1;stroke:none" />
      <rect
         rx="2.7902913"
         ry="6.377809"
         y="565.15173"
         x="135.04355"
         height="12.755618"
         width="12.755618"
         id="rect3089-30"
         style="fill:#ffff00;fill-opacity:1;stroke:none" />
      <rect
         rx="2.7902913"
         ry="6.377809"
         y="110.58311"
         x="161.30751"
         height="12.755618"
         width="12.755618"
         id="rect3089-29"
         style="fill:#ffff00;fill-opacity:1;stroke:none" />
      <rect
         rx="2.7902913"
         ry="6.377809"
         y="314.63394"
         x="292.62735"
         height="12.755618"
         width="12.755618"
         id="rect3089-28"
         style="fill:#ffff00;fill-opacity:1;stroke:none" />
      <rect
         rx="2.7902913"
         ry="6.377809"
         y="245.94356"
         x="-58.905743"
         height="12.755618"
         width="12.755618"
         id="rect3089-73"
         style="fill:#ffff00;fill-opacity:1;stroke:none" />
      <rect
         rx="2.7902913"
         ry="6.377809"
         y="559.09082"
         x="-52.844826"
         height="12.755618"
         width="12.755618"
         id="rect3089-49"
         style="fill:#ffff00;fill-opacity:1;stroke:none" />
      <rect
         rx="2.7902913"
         ry="6.377809"
         y="435.85223"
         x="-64.96666"
         height="12.755618"
         width="12.755618"
         id="rect3089-35"
         style="fill:#ffff00;fill-opacity:1;stroke:none" />
      <rect
         rx="2.7902913"
         ry="6.377809"
         y="193.41562"
         x="242.11972"
         height="12.755618"
         width="12.755618"
         id="rect3089-560"
         style="fill:#ffff00;fill-opacity:1;stroke:none" />
    </g>
  </g>
</svg>
