<?xml version="1.0" encoding="utf-8"?>
<!-- Generator: Adobe Illustrator 27.3.1, SVG Export Plug-In . SVG Version: 6.00 Build 0)  -->
<svg version="1.1" id="レイヤー_1" xmlns="http://www.w3.org/2000/svg" xmlns:xlink="http://www.w3.org/1999/xlink" x="0px"
	 y="0px" viewBox="0 0 120 120" style="enable-background:new 0 0 120 120;" xml:space="preserve">
<style type="text/css">
	.st0{fill:#5865F2;}
	.st1{fill:#FFFFFF;}
</style>
<path class="st0" d="M119.5,60c0,32.9-26.7,59.5-59.5,59.5S0.5,92.9,0.5,60S27.1,0.5,60,0.5C92.9,0.5,119.5,27.1,119.5,60z"/>
<g id="图层_2">
	<g id="Discord_Logos">
		<g id="Discord_Logo_-_Large_-_White">
			<path class="st1" d="M86,36.3c-4.9-2.3-10.1-3.9-15.5-4.8c-0.7,1.3-1.4,2.7-2,4c-5.7-0.9-11.5-0.9-17.2,0c-0.6-1.4-1.3-2.7-2-4
				c-5.3,0.9-10.6,2.5-15.5,4.8C24.1,50.8,21.5,65,22.8,78.9l0,0c5.7,4.2,12.2,7.5,19,9.5c1.5-2.1,2.9-4.3,4.1-6.6
				c-2.2-0.8-4.4-1.9-6.4-3.1c0.5-0.4,1.1-0.8,1.6-1.2c12,5.7,25.9,5.7,37.9,0c0.5,0.4,1,0.8,1.6,1.2c-2,1.2-4.2,2.2-6.4,3.1
				c1.2,2.3,2.5,4.5,4.1,6.5c6.8-2.1,13.3-5.3,19-9.5l0,0C98.7,62.7,94.5,48.7,86,36.3z M47.5,70.3c-3.7,0-6.8-3.4-6.8-7.5
				s3-7.5,6.7-7.5s6.8,3.4,6.8,7.5C54.2,67,51.3,70.3,47.5,70.3z M72.5,70.3c-3.7,0-6.7-3.4-6.7-7.5s2.9-7.5,6.7-7.5
				c3.8,0,6.8,3.4,6.7,7.5S76.2,70.3,72.5,70.3z"/>
		</g>
	</g>
</g>
</svg>
