<?xml version="1.0" encoding="utf-8"?>
<!-- Generator: Adobe Illustrator 27.3.1, SVG Export Plug-In . SVG Version: 6.00 Build 0)  -->
<svg version="1.1" id="レイヤー_1" xmlns="http://www.w3.org/2000/svg" xmlns:xlink="http://www.w3.org/1999/xlink" x="0px"
	 y="0px" viewBox="0 0 120 120" style="enable-background:new 0 0 120 120;" xml:space="preserve">
<style type="text/css">
	.st0{fill:#2081E2;}
	.st1{fill:#FFFFFF;}
</style>
<path class="st0" d="M119.5,60c0,32.9-26.7,59.5-59.5,59.5S0.5,92.9,0.5,60S27.1,0.5,60,0.5C92.9,0.5,119.5,27.1,119.5,60z"/>
<path class="st1" d="M29.8,62l0.3-0.4l15.5-24.2c0.2-0.4,0.8-0.3,0.9,0.1c2.6,5.8,4.8,13,3.8,17.5c-0.4,1.8-1.7,4.3-3,6.7
	c-0.2,0.3-0.4,0.7-0.6,1c-0.1,0.1-0.3,0.2-0.4,0.2H30.3C29.9,62.8,29.6,62.3,29.8,62z"/>
<path class="st1" d="M98.9,66.5v3.8c0,0.2-0.1,0.4-0.3,0.5c-1.2,0.5-5.3,2.4-7,4.8c-4.4,6.1-7.7,14.7-15.1,14.7h-31
	c-11,0-19.9-8.9-19.9-20V70c0-0.3,0.2-0.5,0.5-0.5h17.3c0.3,0,0.6,0.3,0.6,0.7c-0.1,1.1,0.1,2.3,0.6,3.3c1,2.1,3.2,3.4,5.5,3.4h8.6
	v-6.7H50c-0.4,0-0.7-0.5-0.4-0.9c0.1-0.1,0.2-0.3,0.3-0.5c0.8-1.1,1.9-2.9,3.1-4.9c0.8-1.4,1.5-2.8,2.1-4.3c0.1-0.3,0.2-0.5,0.3-0.8
	c0.2-0.5,0.3-0.9,0.5-1.3c0.1-0.4,0.2-0.8,0.3-1.1c0.3-1.2,0.4-2.5,0.4-3.9c0-0.5,0-1.1-0.1-1.6c0-0.6-0.1-1.2-0.2-1.7
	c0-0.5-0.1-1-0.2-1.6c-0.1-0.8-0.3-1.5-0.5-2.3L55.6,45c-0.1-0.5-0.3-1-0.4-1.6c-0.5-1.7-1-3.3-1.6-4.8c-0.2-0.6-0.5-1.2-0.7-1.8
	c-0.4-0.9-0.7-1.7-1.1-2.4c-0.2-0.3-0.3-0.7-0.5-1c-0.2-0.4-0.3-0.7-0.5-1.1c-0.1-0.3-0.3-0.5-0.4-0.8l-1-1.9
	c-0.1-0.3,0.1-0.6,0.4-0.5l6.5,1.8h0c0,0,0,0,0,0l0.9,0.2l0.9,0.3l0.3,0.1v-3.9c0-1.9,1.5-3.4,3.4-3.4c0.9,0,1.8,0.4,2.4,1
	c0.6,0.6,1,1.5,1,2.4v5.8l0.7,0.2c0.1,0,0.1,0,0.2,0.1c0.2,0.1,0.4,0.3,0.7,0.6c0.2,0.2,0.5,0.4,0.8,0.7c0.6,0.5,1.4,1.2,2.2,1.9
	c0.2,0.2,0.4,0.4,0.6,0.6c1.1,1,2.3,2.2,3.4,3.4c0.3,0.4,0.6,0.7,0.9,1.1c0.3,0.4,0.7,0.8,0.9,1.2c0.4,0.5,0.8,1,1.2,1.6
	c0.2,0.3,0.4,0.5,0.5,0.8c0.5,0.7,0.9,1.4,1.3,2.2c0.2,0.3,0.3,0.7,0.5,1.1c0.4,1,0.8,2,1,3c0.1,0.2,0.1,0.4,0.1,0.7v0
	c0.1,0.3,0.1,0.6,0.1,0.9c0.1,1,0,2-0.2,3.1c-0.1,0.4-0.2,0.8-0.4,1.3c-0.1,0.4-0.3,0.9-0.5,1.3c-0.4,0.9-0.8,1.7-1.3,2.5
	c-0.2,0.3-0.4,0.6-0.6,0.9c-0.2,0.3-0.4,0.6-0.6,0.9c-0.3,0.4-0.6,0.8-0.9,1.1c-0.3,0.4-0.5,0.7-0.8,1c-0.4,0.5-0.8,0.9-1.2,1.4
	c-0.2,0.3-0.5,0.6-0.8,0.8c-0.3,0.3-0.5,0.6-0.8,0.8c-0.4,0.4-0.8,0.7-1,1L70.8,70c-0.1,0.1-0.2,0.1-0.4,0.1h-5.2v6.7h6.6
	c1.5,0,2.9-0.5,4-1.5c0.4-0.3,2.1-1.8,4.1-4c0.1-0.1,0.2-0.1,0.3-0.2L98.2,66C98.5,65.9,98.9,66.1,98.9,66.5z"/>
</svg>
