<?xml version="1.0" encoding="utf-8"?>
<!-- Generator: Adobe Illustrator 27.3.1, SVG Export Plug-In . SVG Version: 6.00 Build 0)  -->
<svg version="1.1" id="レイヤー_1" xmlns="http://www.w3.org/2000/svg" xmlns:xlink="http://www.w3.org/1999/xlink" x="0px"
	 y="0px" viewBox="0 0 120 120" style="enable-background:new 0 0 120 120;" xml:space="preserve">
<style type="text/css">
	.st0{fill:#1D9BF0;}
	.st1{fill:#FFFFFF;}
</style>
<g>
	<circle class="st0" cx="60" cy="60" r="59.5"/>
	<path class="st1" d="M49.1,91.4c26.4,0,40.8-21.9,40.8-40.8c0-0.6,0-1.2,0-1.9c2.8-2,5.2-4.6,7.2-7.4c-2.6,1.1-5.3,1.9-8.2,2.3
		c3-1.8,5.2-4.6,6.3-7.9c-2.8,1.6-5.8,2.8-9.1,3.5c-2.6-2.8-6.3-4.5-10.5-4.5c-7.9,0-14.4,6.4-14.4,14.3c0,1.1,0.1,2.2,0.4,3.3
		c-11.9-0.6-22.5-6.3-29.6-15c-1.2,2.1-1.9,4.6-1.9,7.2c0,5,2.5,9.4,6.4,11.9c-2.4-0.1-4.6-0.7-6.5-1.8c0,0.1,0,0.1,0,0.2
		c0,6.9,4.9,12.8,11.5,14.1c-1.2,0.3-2.5,0.5-3.8,0.5c-0.9,0-1.8-0.1-2.7-0.3c1.8,5.7,7.1,9.8,13.4,10c-4.9,3.8-11.1,6.1-17.8,6.1
		c-1.2,0-2.3-0.1-3.4-0.2C33.5,89,41,91.4,49.1,91.4"/>
</g>
</svg>
